<svg xmlns="http://www.w3.org/2000/svg" width="72" height="72" fill="none" viewBox="0 0 72 72">
    <mask id="e9zjj2b13a" width="72" height="72" x="0" y="0" maskUnits="userSpaceOnUse">
        <path fill="#C4C4C4" d="M0 0H72V72H0z"/>
    </mask>
    <g mask="url(#e9zjj2b13a)">
        <path fill="url(#paint0_linear)" d="M11.434 64.082C6.242 49.23 5.982 31.231 6.978 18.938c.405-5.004 4.806-8.64 9.777-7.945 18.386 2.572 33.242 10.77 42.066 17.45 3.82 2.892 4.288 8.272 1.217 11.951-12.385 14.839-27.486 23.891-37.836 28.362-4.33 1.87-9.211-.221-10.768-4.674z"/>
        <g filter="url(#filter0_d)">
            <path fill="#fff" d="M22.022 37.085c.46-.056.838-.23 1.131-.524.293-.293.44-.81.44-1.55v-1.173c-.698.35-1.431.524-2.2.524-.949 0-1.787-.181-2.513-.544-.726-.378-1.291-.908-1.696-1.592-.391-.699-.587-1.508-.587-2.43v-6.011h2.304v5.802c0 .865.21 1.5.628 1.905.42.405 1.04.608 1.865.608.46 0 .838-.049 1.13-.147.308-.097.517-.195.63-.293.125-.098.271-.23.439-.398v-7.477h2.304v11.394c0 1.103-.237 1.962-.712 2.576-.475.615-1.285.978-2.43 1.09l-.733-1.76zM36.345 34.572c0 1.41-.433 2.45-1.299 3.12-.852.657-1.878.985-3.079.985-.754 0-1.466-.133-2.136-.398-.67-.28-1.222-.726-1.655-1.34-.419-.615-.628-1.404-.628-2.367v-6.745c0-1.438.39-2.527 1.173-3.267.796-.74 1.885-1.11 3.267-1.11 1.383 0 2.45.39 3.205 1.172.768.782 1.152 1.858 1.152 3.226v6.724zm-2.304-5.97c0-.586-.05-1.068-.147-1.445-.098-.377-.3-.67-.607-.88-.307-.223-.754-.335-1.34-.335-.587 0-1.034.105-1.341.314-.307.21-.51.503-.608.88-.097.363-.146.845-.146 1.445v5.592c0 .67.167 1.201.502 1.592.35.377.88.566 1.592.566.657 0 1.166-.203 1.53-.608.376-.404.565-.935.565-1.591v-5.53zM48.092 23.764V34.55c0 1.41-.433 2.436-1.299 3.078-.852.643-1.885.964-3.1.964s-2.255-.321-3.12-.964c-.867-.642-1.3-1.668-1.3-3.078V23.764h2.305v9.865c0 .95.14 1.64.418 2.074.294.418.852.628 1.676.628.838 0 1.397-.21 1.676-.628.293-.433.44-1.125.44-2.074v-9.865h2.304zM17.226 43.421h6.995v2.304H19.53v3.707h2.933l-.754 2.2H19.53v6.45h-2.305V43.422zM35.41 43.4v10.787c0 1.41-.433 2.437-1.299 3.079-.852.642-1.885.963-3.1.963s-2.255-.32-3.12-.963c-.866-.642-1.3-1.669-1.3-3.08V43.4h2.305v9.865c0 .95.14 1.641.419 2.074.293.419.851.628 1.675.628.838 0 1.397-.21 1.676-.628.293-.433.44-1.124.44-2.074V43.4h2.304zM40.843 48.176v9.907H38.54V43.42h2.304l5.676 9.844v-9.844h2.325v14.662H46.52l-5.676-9.907z"/>
        </g>
    </g>
    <defs>
        <linearGradient id="paint0_linear" x1="53.104" x2="8.091" y1="59.468" y2="11.128" gradientUnits="userSpaceOnUse">
            <stop stop-color="#C082FF"/>
            <stop offset="1" stop-color="#0DC5FF"/>
        </linearGradient>
        <filter id="filter0_d" width="44.247" height="46.78" x="12.597" y="22.45" color-interpolation-filters="sRGB" filterUnits="userSpaceOnUse">
            <feFlood flood-opacity="0" result="BackgroundImageFix"/>
            <feColorMatrix in="SourceAlpha" values="0 0 0 0 0 0 0 0 0 0 0 0 0 0 0 0 0 0 127 0"/>
            <feOffset dx="2" dy="5"/>
            <feGaussianBlur stdDeviation="3"/>
            <feColorMatrix values="0 0 0 0 0 0 0 0 0 0 0 0 0 0 0 0 0 0 0.2 0"/>
            <feBlend in2="BackgroundImageFix" result="effect1_dropShadow"/>
            <feBlend in="SourceGraphic" in2="effect1_dropShadow" result="shape"/>
        </filter>
    </defs>
</svg>
